<svg t="1735287558169" class="icon" viewBox="0 0 1077 1024" version="1.1" xmlns="http://www.w3.org/2000/svg"
	p-id="22080" width="200" height="200">
	<path
		d="M497.448 33.738a55.08 55.08 0 0 1 75.938 0l458.267 442.584a50.661 50.661 0 0 1 0 73.35c-10.078 9.701-23.714 15.199-37.996 15.199H857.79v371.873c0 27.648-22.367 50.23-50.554 51.847l-3.18 0.054h-537.33c-29.642 0-53.733-23.175-53.733-51.9V564.87H77.123c-28.564 0-52.008-21.558-53.625-48.829l-0.108-2.964c0-13.797 5.66-26.947 15.738-36.702z m37.942 61.17L120.4 495.725h164.164v423.774h197.04V781.096h107.465l-0.053 138.348h197.093V495.778h164.27L535.39 94.855z"
		p-id="22081"></path>
</svg>