<svg t="1735288937552" class="icon" viewBox="0 0 1024 1024" version="1.1" xmlns="http://www.w3.org/2000/svg"
	p-id="51887" width="200" height="200">
	<path
		d="M726.51 905.45l-397.69-394.8 394.2-391.22c0-0.1 0.1-0.1 0.1-0.2 10.76-12.85 8.97-31.99-3.89-42.75-10.96-12.76-30.19-14.45-43.25-3.79l-421.7 418.62a30.517 30.517 0 0 0-5.16 30.18c0.02 0.06 0.04 0.11 0.06 0.17 0.08 0.21 0.16 0.42 0.25 0.63a31.27 31.27 0 0 0 5.05 8.58l424.69 421.6c13.16 10.76 32.49 9.07 43.55-3.79 12.86-10.95 14.65-30.28 3.79-43.23z"
		fill="#333333" p-id="51888"></path>
</svg>